# AST/ASF file generated using VICON BodyLanguage
# -----------------------------------------------
:version 1.10
:name VICON
:units
  mass 1.0
  length 0.45
  angle deg
:documentation
   .ast/.asf automatically generated from VICON data using
   VICON BodyBuilder and BodyLanguage model FoxedUp or BRILLIANT.MOD
:root
   order TX TY TZ RX RY RZ
   axis XYZ
   position 0 0 0  
   orientation 0 0 0 
:bonedata
  begin
     id 1 
     name lhipjoint
     direction 0.624716 -0.669793 0.401383 
     length 2.38238 
     axis 0 0 0  XYZ
  end
  begin
     id 2 
     name lfemur
     direction 0.34202 -0.939693 0  
     length 6.4574  
     axis 0 0 20  XYZ
    dof rx ry rz
    limits (-160.0 20.0)
           (-70.0 70.0)
           (-60.0 70.0)
  end
  begin
     id 3 
     name ltibia
     direction 0.34202 -0.939693 0   
     length 7.68739   
     axis 0 0 20   XYZ
    dof rx
    limits (-10.0 170.0)
  end
  begin
     id 4 
     name lfoot
     direction 0.0681309 -0.187188 0.979959   
     length 2.46615   
     axis -90 7.62852e-016 20   XYZ
    dof rx rz
    limits (-45.0 90.0)
           (-70.0 20.0)
  end
  begin
     id 5 
     name ltoes
     direction 1.53566e-011 -4.21819e-011 1   
     length 1.2376   
     axis -90 7.62852e-016 20   XYZ
    dof rx
    limits (-90.0 20.0)
  end
  begin
     id 6 
     name rhipjoint
     direction -0.644473 -0.655875 0.393043   
     length 2.43293  
     axis 0 0 0  XYZ 
  end
  begin
     id 7 
     name rfemur
     direction -0.34202 -0.939693 0   
     length 6.7025   
     axis 0 0 -20   XYZ
    dof rx ry rz
    limits (-160.0 20.0)
           (-70.0 70.0)
           (-70.0 60.0)
  end
  begin
     id 8 
     name rtibia
     direction -0.34202 -0.939693 0   
     length 7.80547   
     axis 0 0 -20   XYZ
    dof rx
    limits (-10.0 170.0)
 end
 begin
     id 9 
     name rfoot
     direction -0.0756734 -0.207911 0.975216   
     length 2.40315  
     axis -90 -7.62852e-016 -20   XYZ
    dof rx rz
    limits (-45.0 90.0)
           (-20.0 70.0)
  end
  begin
     id 10 
     name rtoes
     direction -1.5353e-011 -4.21879e-011 1   
     length 1.20477   
     axis -90 -7.62852e-016 -20   XYZ
    dof rx
    limits (-90.0 20.0)
  end
  begin
     id 11 
     name lowerback
     direction 0.0160353 0.987463 -0.157037   
     length 2.18572   
     axis 0 0 0   XYZ
    dof rx ry rz
    limits (-20.0 45.0)
           (-30.0 30.0)
           (-30.0 30.0)
  end
  begin
     id 12 
     name upperback
     direction -0.00499661 0.999756 0.0215076   
     length 2.18016   
     axis 0 0 0   XYZ
    dof rx ry rz
    limits (-20.0 45.0)
           (-30.0 30.0)
           (-30.0 30.0)
  end
  begin
     id 13 
     name thorax
     direction -0.00921346 0.995333 0.0960619   
     length 2.24923   
     axis 0 0 0   XYZ
    dof rx ry rz
    limits (-20.0 45.0)
           (-30.0 30.0)
           (-30.0 30.0)
  end
  begin
     id 14 
     name lowerneck
     direction 0.0274184 0.991181 0.12965   
     length 1.70911   
     axis 0 0 0   XYZ
    dof rx ry rz
    limits (-20.0 45.0)
           (-30.0 30.0)
           (-30.0 30.0)
  end
  begin
     id 15 
     name upperneck
     direction 0.0015627 0.999959 -0.00893559   
     length 1.69312   
     axis 0 0 0   XYZ
    dof rx ry rz
    limits (-20.0 45.0)
           (-30.0 30.0)
           (-30.0 30.0)
  end
  begin
     id 16
     name head
     direction -0.00230242 0.999856 -0.0168327  
     length 1.80241  
     axis 0 0 0   XYZ
    dof rx ry rz
    limits (-20.0 45.0)
           (-30.0 30.0)
           (-30.0 30.0)
  end
  begin
     id 17 
     name lclavicle
     direction 0.955523 0.290741 -0.0494489  
     length 3.84275  
     axis 0 0 0   XYZ
    dof ry rz
    limits (-20.0 10.0)
           (0.0 20.0)
  end
  begin
     id 18 
     name lhumerus
     direction 1 -4.48967e-011 -3.18382e-028   
     length 5.17714   
     axis 180 -30 -90   XYZ
    dof rx ry rz
    limits (-60.0 90.0)
           (-90.0 90.0)
           (-90.0 90.0)
  end
  begin
     id 19
     name lradius
     direction 1 -4.48968e-011 -2.22911e-027   
     length 3.43679   
     axis 180 -30 -90   XYZ
    dof rx
    limits (-10.0 170.0)
  end
  begin
     id 20
     name lwrist
     direction 1 -4.48951e-011 -6.32245e-027   
     length 1.7184   
     axis 3.57107e-015 90 90   XYZ
    dof ry
    limits (-180.0 0.0)
 end
  begin
     id 21 
     name lhand
     direction 1 -4.48924e-011 -1.26431e-026   
     length 0.573117   
     axis 8.06912e-015 90 90   XYZ
    dof rx rz
    limits (-90.0 90.0)
           (-45.0 45.0)
  end
  begin
     id 22 
     name lfingers
     direction 1 -4.49001e-011 -2.52965e-026   
     length 0.462062   
     axis 1.61381e-014 90 90   XYZ
    dof rx
    limits (0.0 90.0)
  end
  begin
     id 23
     name lthumb
     direction 0.707107 -6.35008e-011 0.707107   
     length 0.663431   
     axis -90 45 -1.62303e-014   XYZ
    dof rx rz
    limits (-45.0 45.0)
           (-45.0 45.0)
  end
  begin
     id 24 
     name rclavicle
     direction -0.963917 0.256881 -0.0698287   
     length 3.73057  
     axis 0 0 0   XYZ 
    dof ry rz
    limits (-10.0 20.0)
           (-20.0 0.0)
  end
  begin
     id 25 
     name rhumerus
     direction -1 -4.48962e-011 -2.73982e-027  
     length 5.23908   
     axis 180 30 90   XYZ
    dof rx ry rz
    limits (-90.0 60.0)
           (-90.0 90.0)
           (-90.0 90.0)
  end
  begin
     id 26 
     name rradius
     direction -1 -4.48968e-011 -4.33218e-027   
     length 3.46485   
     axis 180 30 90   XYZ
    dof rx
    limits (-10.0 170.0)
  end
  begin
     id 27 
     name rwrist
     direction -1 -4.48989e-011 -6.32372e-027   
     length 1.73243   
     axis 3.57107e-015 -90 -90   XYZ
    dof ry
    limits (-180.0 0.0)
  end
  begin
     id 28
     name rhand
     direction -1 -4.48948e-011 -1.26448e-026   
     length 0.608752   
     axis 8.06912e-015 -90 -90   XYZ
    dof rx rz
    limits (-90.0 90.0)
           (-45.0 45.0)
  end
  begin
     id 29
     name rfingers
     direction -1 -4.48962e-011 -2.52913e-026   
     length 0.490792   
     axis 1.61381e-014 -90 -90   XYZ
    dof rx
    limits (0.0 90.0)
  end
  begin
     id 30
     name rthumb
     direction -0.707107 -6.34878e-011 0.707107   
     length 0.704682   
     axis -90 -45 1.62303e-014   XYZ
    dof rx rz
    limits (-45.0 45.0)
           (-45.0 45.0)
  end
:hierarchy
  begin
    root lhipjoint rhipjoint lowerback
    lhipjoint lfemur
    lfemur ltibia
    ltibia lfoot
    lfoot ltoes
    rhipjoint rfemur
    rfemur rtibia
    rtibia rfoot
    rfoot rtoes
    lowerback upperback
    upperback thorax
    thorax lowerneck lclavicle rclavicle
    lowerneck upperneck
    upperneck head
    lclavicle lhumerus
    lhumerus lradius
    lradius lwrist
    lwrist lhand lthumb
    lhand lfingers
    rclavicle rhumerus
    rhumerus rradius
    rradius rwrist
    rwrist rhand rthumb
    rhand rfingers
  end

#!OML:ASF G:\JayActor3\Patient Classification 1\Patient 1\Session 6\male.ASF
:FULLY-SPECIFIED
:DEGREES
316
root 45.7881 15.8177 17.4841 179.302 -34.7956 -177.341
lowerback -3.33942 -6.45263 4.54033
upperback 0.309271 -9.17697 5.1274
thorax 2.32736 -4.6642 2.27923
lowerneck 2.03238 9.18249 9.95401
upperneck 1.6738 12.5953 -11.9565
head 1.56554 6.2867 -4.93989
rclavicle 1.12115e-013 -2.38542e-014
rhumerus -45.8564 -11.371 -68.1621
rradius 22.6062
rwrist 3.13905
rhand -21.1917 -6.52597
rfingers 7.12502
rthumb 5.18922 -36.4424
lclavicle 1.12115e-013 -2.38542e-014
lhumerus -21.8341 -2.85376 87.488
lradius 50.3062
lwrist 27.8384
lhand -10.1052 14.4614
lfingers 7.12502
lthumb 15.8823 43.83
rfemur -39.2736 6.10915 28.617
rtibia 41.4481
rfoot -15.7693 -11.9302
rtoes -3.3122
lfemur 19.421 14.9904 -22.9166
ltibia 2.8625e-014
lfoot -16.0436 6.63529
ltoes -10.1031
317
root 45.7326 15.8232 17.4358 179.449 -35.0273 -177.247
lowerback -3.51315 -6.5081 4.63008
upperback 0.202335 -9.27726 5.27073
thorax 2.32556 -4.71955 2.35776
lowerneck 1.98803 9.28753 10.0919
upperneck 1.61442 12.738 -12.1844
head 1.59521 6.3552 -5.0201
rclavicle -8.51295e-014 8.74653e-014
rhumerus -46.1435 -11.7811 -67.6751
rradius 22.5167
rwrist 3.19591
rhand -21.2403 -6.55666
rfingers 7.12502
rthumb 5.14231 -36.4743
lclavicle -8.51295e-014 8.74653e-014
lhumerus -21.5732 -3.40629 87.7639
lradius 50.251
lwrist 27.6775
lhand -9.55622 14.7791
lfingers 7.12502
lthumb 16.411 44.1049
rfemur -39.078 6.47404 28.5065
rtibia 39.6654
rfoot -15.8651 -11.8855
rtoes -3.53762
lfemur 19.4381 14.7766 -22.9071
ltibia 2.54444e-014
lfoot -16.0293 6.71118
ltoes -10.5439
318
root 45.6763 15.8262 17.3857 179.593 -35.2619 -177.248
lowerback -3.65241 -6.56878 4.63244
upperback 0.119045 -9.3764 5.38825
thorax 2.33828 -4.77384 2.45868
lowerneck 1.96514 9.38085 10.2182
upperneck 1.50938 12.8628 -12.4136
head 1.60588 6.41583 -5.10204
rclavicle -1.40143e-014 -4.77083e-015
rhumerus -46.4115 -12.1887 -67.2106
rradius 22.4143
rwrist 3.25751
rhand -21.2988 -6.60056
rfingers 7.12502
rthumb 5.08589 -36.5195
lclavicle -1.40143e-014 -4.77083e-015
lhumerus -21.3155 -3.90907 88.0555
lradius 50.1546
lwrist 27.478
lhand -9.05297 15.0805
lfingers 7.12502
lthumb 16.8955 44.3656
rfemur -38.8468 6.76327 28.331
rtibia 38.0017
rfoot -15.9784 -11.8106
rtoes -3.8561
lfemur 19.5292 14.5646 -22.9632
ltibia 4.13472e-014
lfoot -16.0098 6.77626
ltoes -10.9682
319
root 45.6203 15.8287 17.3336 179.795 -35.5162 -177.373
lowerback -3.79015 -6.64444 4.51033
upperback 0.0399911 -9.48625 5.48447
thorax 2.37089 -4.83319 2.60246
lowerneck 1.95409 9.47301 10.3235
upperneck 1.37754 12.9838 -12.6356
head 1.60501 6.47514 -5.18007
rclavicle -3.3048e-014 6.36111e-015
rhumerus -46.6544 -12.5955 -66.7529
rradius 22.2935
rwrist 3.34888
rhand -21.3004 -6.61932
rfingers 7.12502
rthumb 5.08428 -36.5383
lclavicle -3.3048e-014 6.36111e-015
lhumerus -21.0751 -4.34882 88.3645
lradius 50.0268
lwrist 27.2379
lhand -8.58066 15.3759
lfingers 7.12502
lthumb 17.3501 44.6215
rfemur -38.6387 6.97724 28.0609
rtibia 36.4841
rfoot -16.1107 -11.6992
rtoes -4.16039
lfemur 19.6332 14.3346 -23.1175
ltibia -2.22639e-014
lfoot -15.9698 6.82435
ltoes -11.361
320
root 45.5644 15.8311 17.2795 180.016 -35.7942 -177.494
lowerback -3.96426 -6.72283 4.38623
upperback -0.0432566 -9.60214 5.58195
thorax 2.42088 -4.89528 2.74325
lowerneck 1.94845 9.56345 10.4125
upperneck 1.23691 13.1012 -12.8346
head 1.59806 6.53308 -5.24937
rclavicle -6.41578e-014 6.67916e-014
rhumerus -46.8873 -12.9903 -66.3157
rradius 22.1644
rwrist 3.4454
rhand -21.2709 -6.62364
rfingers 7.12502
rthumb 5.11281 -36.542
lclavicle -6.41578e-014 6.67916e-014
lhumerus -20.8592 -4.745 88.6958
lradius 49.8658
lwrist 26.947
lhand -8.1511 15.6614
lfingers 7.12502
lthumb 17.7634 44.8701
rfemur -38.4807 7.11642 27.8125
rtibia 35.1202
rfoot -16.2284 -11.5709
rtoes -4.49708
lfemur 19.7175 14.077 -23.2629
ltibia 3.81667e-014
lfoot -15.9056 6.85689
ltoes -11.7577
321
root 45.5068 15.8328 17.2242 180.219 -36.061 -177.626
lowerback -4.12733 -6.79797 4.26328
upperback -0.119044 -9.71225 5.67031
thorax 2.47132 -4.95412 2.87491
lowerneck 1.95892 9.64851 10.4975
upperneck 1.08366 13.211 -13.0296
head 1.58376 6.58793 -5.31852
rclavicle -1.00386e-013 1.59028e-015
rhumerus -47.102 -13.3638 -65.9045
rradius 22.0197
rwrist 3.58504
rhand -21.2188 -6.61611
rfingers 7.12502
rthumb 5.16312 -36.5332
lclavicle -1.00386e-013 1.59028e-015
lhumerus -20.6729 -5.08955 89.0447
lradius 49.6712
lwrist 26.6191
lhand -7.74455 15.9472
lfingers 7.12502
lthumb 18.1546 45.1199
rfemur -38.3268 7.18326 27.5837
rtibia 33.9332
rfoot -16.3223 -11.3971
rtoes -4.80138
lfemur 19.8402 13.8298 -23.4041
ltibia -3.18055e-015
lfoot -15.8344 6.87249
ltoes -12.1555
322
root 45.447 15.8336 17.1676 180.404 -36.3029 -177.769
lowerback -4.2815 -6.8615 4.15585
upperback -0.187905 -9.80585 5.74488
thorax 2.51921 -5.00403 2.98565
lowerneck 1.98877 9.72657 10.5806
upperneck 0.926325 13.3119 -13.2235
head 1.5642 6.63906 -5.38868
rclavicle 5.96354e-015 -6.04305e-014
rhumerus -47.3082 -13.7284 -65.5086
rradius 21.8658
rwrist 3.77039
rhand -21.1325 -6.60026
rfingers 7.12502
rthumb 5.24641 -36.5153
lclavicle 5.96354e-015 -6.04305e-014
lhumerus -20.5193 -5.39201 89.4135
lradius 49.4391
lwrist 26.2562
lhand -7.36342 16.2368
lfingers 7.12502
lthumb 18.5213 45.3751
rfemur -38.1713 7.19655 27.3739
rtibia 32.9272
rfoot -16.3804 -11.1717
rtoes -5.02261
lfemur 20.0026 13.6069 -23.5407
ltibia -3.81667e-014
lfoot -15.7549 6.86735
ltoes -12.5565
323
root 45.3862 15.8343 17.1094 180.576 -36.5325 -177.911
lowerback -4.43653 -6.91956 4.05647
upperback -0.253695 -9.89223 5.81455
thorax 2.56886 -5.05007 3.0869
lowerneck 2.02175 9.80541 10.6569
upperneck 0.782394 13.4143 -13.4041
head 1.54719 6.69104 -5.45357
rclavicle -3.84648e-014 -4.13472e-014
rhumerus -47.4925 -14.0617 -65.1488
rradius 21.7041
rwrist 3.98694
rhand -21.024 -6.5871
rfingers 7.12502
rthumb 5.3512 -36.4995
lclavicle -3.84648e-014 -4.13472e-014
lhumerus -20.3943 -5.64343 89.7997
lradius 49.1638
lwrist 25.8525
lhand -6.99033 16.5278
lfingers 7.12502
lthumb 18.8801 45.6315
rfemur -38.0304 7.18028 27.1819
rtibia 32.1151
rfoot -16.414 -10.9103
rtoes -5.10996
lfemur 20.1858 13.3938 -23.6618
ltibia -3.49861e-014
lfoot -15.6598 6.84133
ltoes -12.978
324
root 45.3239 15.8338 17.0494 180.717 -36.7409 -178.035
lowerback -4.58994 -6.96847 3.98518
upperback -0.311707 -9.96799 5.8789
thorax 2.62016 -5.09035 3.16801
lowerneck 2.07208 9.87658 10.738
upperneck 0.641748 13.5077 -13.598
head 1.52881 6.73893 -5.52457
rclavicle -1.92821e-014 -5.08889e-014
rhumerus -47.6548 -14.3544 -64.8374
rradius 21.5464
rwrist 4.20354
rhand -20.9148 -6.59745
rfingers 7.12502
rthumb 5.45657 -36.5072
lclavicle -1.92821e-014 -5.08889e-014
lhumerus -20.295 -5.8548 90.2011
lradius 48.8386
lwrist 25.4288
lhand -6.63987 16.8039
lfingers 7.12502
lthumb 19.2171 45.8745
rfemur -37.8879 7.1477 27.0231
rtibia 31.4878
rfoot -16.395 -10.6396
rtoes -5.10571
lfemur 20.4082 13.2007 -23.7546
ltibia -3.81667e-014
lfoot -15.5578 6.79277
ltoes -13.4105
325
root 45.2606 15.8321 16.9879 180.838 -36.9304 -178.144
lowerback -4.74178 -7.01364 3.93218
upperback -0.366579 -10.0402 5.94416
thorax 2.67115 -5.12884 3.24037
lowerneck 2.13061 9.94748 10.8105
upperneck 0.511176 13.6013 -13.791
head 1.51174 6.78706 -5.59423
rclavicle -2.85256e-014 2.8625e-014
rhumerus -47.7837 -14.6005 -64.5699
rradius 21.3922
rwrist 4.42009
rhand -20.7928 -6.62466
rfingers 7.12502
rthumb 5.57441 -36.5313
lclavicle -2.85256e-014 2.8625e-014
lhumerus -20.2155 -5.99985 90.6197
lradius 48.4453
lwrist 24.9708
lhand -6.32438 17.0463
lfingers 7.12502
lthumb 19.5205 46.0863
rfemur -37.7452 7.11651 26.8861
rtibia 31.0292
rfoot -16.3198 -10.3726
rtoes -4.87984
lfemur 20.6522 13.0239 -23.8213
ltibia 5.725e-014
lfoot -15.444 6.70955
ltoes -13.7912
326
root 45.1959 15.8283 16.9249 180.924 -37.0915 -178.226
lowerback -4.89121 -7.04588 3.91614
upperback -0.412622 -10.0977 6.00449
thorax 2.72255 -5.15945 3.2888
lowerneck 2.18597 10.0176 10.8837
upperneck 0.401383 13.695 -13.9768
head 1.5011 6.83498 -5.66109
rclavicle 7.35503e-014 -7.95139e-015
rhumerus -47.888 -14.8005 -64.3599
rradius 21.2554
rwrist 4.59514
rhand -20.6653 -6.67534
rfingers 7.12502
rthumb 5.69748 -36.5787
lclavicle 7.35503e-014 -7.95139e-015
lhumerus -20.1445 -6.10032 91.0497
lradius 47.9656
lwrist 24.4879
lhand -6.0093 17.2476
lfingers 7.12502
lthumb 19.8234 46.2566
rfemur -37.5835 7.09057 26.7841
rtibia 30.7164
rfoot -16.1755 -10.1317
rtoes -4.54791
lfemur 20.9335 12.8743 -23.8533
ltibia 1.59028e-014
lfoot -15.326 6.59531
ltoes -14.159
327
root 45.1304 15.8232 16.8606 180.984 -37.2274 -178.279
lowerback -5.03601 -7.07385 3.92408
upperback -0.455693 -10.1521 6.07187
thorax 2.77179 -5.18883 3.33226
lowerneck 2.24055 10.0907 10.9528
upperneck 0.310681 13.7939 -14.1735
head 1.49763 6.88488 -5.72973
rclavicle -8.66701e-014 -4.77083e-015
rhumerus -47.9542 -14.9497 -64.188
rradius 21.1339
rwrist 4.75063
rhand -20.5094 -6.72911
rfingers 7.12502
rthumb 5.848 -36.6284
lclavicle -8.66701e-014 -4.77083e-015
lhumerus -20.0862 -6.12537 91.4877
lradius 47.4051
lwrist 23.932
lhand -5.63662 17.4258
lfingers 7.12502
lthumb 20.1816 46.3974
rfemur -37.3977 7.08817 26.7072
rtibia 30.5281
rfoot -15.9944 -9.92615
rtoes -4.15059
lfemur 21.2412 12.748 -23.852
ltibia -6.36111e-015
lfoot -15.1972 6.45916
ltoes -14.5582
